


mtllib 海信\检测服务_飘浮.mtl





v  -3.3291 -42.1984 66.5127
v  -15.8776 -42.1984 78.0309
v  -16.7627 -42.1984 76.7062
v  -4.6268 -42.1984 64.5704
v  -18.0873 -42.1984 75.8212
v  -6.5691 -42.1984 63.2727
v  -19.6498 -42.1984 75.5104
v  -8.8602 -42.1984 62.8169
v  -65.9290 -42.1984 75.5104
v  -76.7187 -42.1984 62.8169
v  -67.4915 -42.1984 75.8212
v  -79.0097 -42.1984 63.2727
v  -68.8161 -42.1984 76.7063
v  -80.9520 -42.1984 64.5704
v  -69.7012 -42.1984 78.0309
v  -82.2497 -42.1984 66.5127
v  -70.0120 -42.1984 79.5934
v  -82.7055 -42.1984 68.8038
v  -70.0120 -42.1984 125.8726
v  -82.7055 -42.1984 136.6622
v  -69.7012 -42.1984 127.4351
v  -82.2497 -42.1984 138.9533
v  -68.8161 -42.1984 128.7597
v  -80.9520 -42.1984 140.8956
v  -67.4915 -42.1984 129.6448
v  -79.0097 -42.1984 142.1933
v  -65.9290 -42.1984 129.9556
v  -76.7187 -42.1984 142.6490
v  -19.6498 -42.1984 129.9556
v  -8.8602 -42.1984 142.6490
v  -18.0873 -42.1984 129.6448
v  -6.5691 -42.1984 142.1933
v  -16.7627 -42.1984 128.7597
v  -4.6268 -42.1984 140.8955
v  -15.8776 -42.1984 127.4351
v  -3.3291 -42.1984 138.9533
v  -15.5668 -42.1984 125.8726
v  -2.8733 -42.1984 136.6622
v  -15.5668 -42.1984 79.5934
v  -2.8733 -42.1984 68.8038
v  -3.3291 -29.4712 66.5127
v  -4.6268 -29.4712 64.5704
v  -16.7627 -29.4712 76.7062
v  -15.8776 -29.4712 78.0308
v  -6.5691 -29.4712 63.2727
v  -18.0873 -29.4712 75.8212
v  -8.8602 -29.4712 62.8169
v  -19.6498 -29.4712 75.5104
v  -76.7187 -29.4712 62.8169
v  -65.9290 -29.4712 75.5104
v  -79.0097 -29.4712 63.2727
v  -67.4915 -29.4712 75.8212
v  -80.9520 -29.4712 64.5704
v  -68.8161 -29.4712 76.7062
v  -82.2497 -29.4712 66.5127
v  -69.7012 -29.4712 78.0308
v  -82.7055 -29.4712 68.8037
v  -70.0120 -29.4712 79.5933
v  -82.7055 -29.4712 136.6622
v  -70.0120 -29.4712 125.8726
v  -82.2497 -29.4712 138.9533
v  -69.7012 -29.4712 127.4351
v  -80.9520 -29.4712 140.8956
v  -68.8161 -29.4712 128.7597
v  -79.0097 -29.4712 142.1933
v  -67.4915 -29.4712 129.6448
v  -76.7187 -29.4712 142.6490
v  -65.9290 -29.4712 129.9556
v  -8.8602 -29.4712 142.6490
v  -19.6498 -29.4712 129.9556
v  -6.5691 -29.4712 142.1933
v  -18.0873 -29.4712 129.6448
v  -4.6268 -29.4712 140.8956
v  -16.7627 -29.4712 128.7597
v  -3.3291 -29.4712 138.9533
v  -15.8776 -29.4712 127.4351
v  -2.8733 -29.4712 136.6622
v  -15.5668 -29.4712 125.8726
v  -2.8733 -29.4712 68.8037
v  -15.5668 -29.4712 79.5933
v  -8.9972 -36.5701 141.2578
v  -8.9972 -35.0995 141.2578
v  -76.5816 -35.0995 141.2578
v  -76.5816 -36.5701 141.2578
v  -7.0964 -36.5701 140.9204
v  -7.0964 -35.0995 140.9204
v  -5.6011 -36.5701 139.9213
v  -5.6011 -35.0995 139.9213
v  -4.6020 -36.5701 138.4260
v  -4.6020 -35.0995 138.4260
v  -4.2646 -36.5701 136.5252
v  -4.2646 -35.0995 136.5252
v  -4.2646 -36.5701 68.9408
v  -4.2646 -35.0995 68.9408
v  -4.6020 -36.5701 67.0399
v  -4.6020 -35.0995 67.0399
v  -5.6011 -36.5701 65.5447
v  -5.6011 -35.0995 65.5447
v  -7.0964 -36.5701 64.5455
v  -7.0964 -35.0995 64.5455
v  -8.9972 -36.5701 64.2082
v  -8.9972 -35.0995 64.2082
v  -76.5816 -36.5701 64.2082
v  -76.5816 -35.0995 64.2082
v  -78.4825 -36.5701 64.5456
v  -78.4825 -35.0995 64.5455
v  -79.9777 -36.5701 65.5447
v  -79.9777 -35.0995 65.5447
v  -80.9768 -36.5701 67.0399
v  -80.9768 -35.0995 67.0399
v  -81.3142 -36.5701 68.9408
v  -81.3142 -35.0995 68.9408
v  -81.3142 -36.5701 136.5252
v  -81.3142 -35.0995 136.5252
v  -80.9768 -36.5701 138.4260
v  -80.9768 -35.0995 138.4260
v  -79.9777 -36.5701 139.9213
v  -79.9777 -35.0995 139.9213
v  -78.4825 -36.5701 140.9204
v  -78.4825 -35.0995 140.9204
v  -3.3291 -35.0995 66.5127
v  -4.6268 -35.0995 64.5704
v  -6.5691 -35.0995 63.2727
v  -8.8602 -35.0995 62.8169
v  -76.7187 -35.0995 62.8169
v  -79.0097 -35.0995 63.2727
v  -80.9520 -35.0995 64.5704
v  -82.2497 -35.0995 66.5127
v  -82.7055 -35.0995 68.8037
v  -82.7055 -35.0995 136.6622
v  -82.2497 -35.0995 138.9533
v  -80.9520 -35.0995 140.8956
v  -79.0097 -35.0995 142.1933
v  -76.7187 -35.0995 142.6490
v  -8.8602 -35.0995 142.6490
v  -6.5691 -35.0995 142.1933
v  -4.6268 -35.0995 140.8956
v  -3.3291 -35.0995 138.9533
v  -2.8733 -35.0995 136.6622
v  -2.8733 -35.0995 68.8037
v  -8.8602 -36.5701 142.6490
v  -6.5691 -36.5701 142.1933
v  -4.6268 -36.5701 140.8955
v  -3.3291 -36.5701 138.9533
v  -2.8733 -36.5701 136.6622
v  -2.8733 -36.5701 68.8038
v  -3.3291 -36.5701 66.5127
v  -4.6268 -36.5701 64.5704
v  -6.5691 -36.5701 63.2727
v  -8.8602 -36.5701 62.8169
v  -76.7187 -36.5701 62.8169
v  -79.0097 -36.5701 63.2727
v  -80.9520 -36.5701 64.5704
v  -82.2497 -36.5701 66.5127
v  -82.7055 -36.5701 68.8038
v  -82.7055 -36.5701 136.6622
v  -82.2497 -36.5701 138.9533
v  -80.9520 -36.5701 140.8956
v  -79.0097 -36.5701 142.1933
v  -76.7187 -36.5701 142.6490


vn 0.0000 -1.0000 -0.0000
vn 0.0000 -1.0000 0.0000
vn 0.0000 1.0000 -0.0000
vn 0.0000 1.0000 0.0000
vn -0.7071 0.0000 0.7071
vn -0.9239 0.0000 0.3827
vn -0.3827 -0.0000 0.9239
vn -0.0065 -0.0000 1.0000
vn 0.0065 -0.0000 1.0000
vn 0.3827 0.0000 0.9239
vn 0.7071 0.0000 0.7071
vn 0.9239 0.0000 0.3827
vn 1.0000 0.0000 0.0065
vn 1.0000 0.0000 -0.0065
vn 0.9239 0.0000 -0.3827
vn 0.7071 0.0000 -0.7071
vn 0.3827 0.0000 -0.9239
vn 0.0065 0.0000 -1.0000
vn -0.0065 0.0000 -1.0000
vn -0.3827 0.0000 -0.9239
vn -0.7071 0.0000 -0.7071
vn -0.9239 0.0000 -0.3827
vn -1.0000 0.0000 -0.0065
vn -1.0000 0.0000 0.0065
vn 0.0049 -0.0000 1.0000
vn -0.0049 -0.0000 1.0000
vn 0.3662 -0.0000 0.9305
vn 0.7071 -0.0000 0.7071
vn 0.9305 -0.0000 0.3662
vn 1.0000 -0.0000 0.0049
vn 1.0000 0.0000 -0.0049
vn 0.9305 0.0000 -0.3662
vn 0.3662 0.0000 -0.9305
vn 0.0049 0.0000 -1.0000
vn -0.0049 0.0000 -1.0000
vn -0.3662 -0.0000 -0.9305
vn -0.7071 -0.0000 -0.7071
vn -0.9305 -0.0000 -0.3662
vn -1.0000 0.0000 -0.0049
vn -1.0000 -0.0000 0.0049
vn -0.9305 -0.0000 0.3662
vn -0.7071 -0.0000 0.7071
vn -0.3662 -0.0000 0.9305
vn 0.9239 -0.0000 -0.3827
vn 0.7071 -0.0000 -0.7071
vn -0.3827 -0.0000 -0.9239
vn -0.9239 -0.0000 -0.3827
vn -1.0000 -0.0000 0.0065
vn -0.9239 -0.0000 0.3827
vn 0.3827 -0.0000 0.9239
vn 0.9239 -0.0000 0.3827
vn 1.0000 -0.0000 0.0065
vn 1.0000 -0.0000 -0.0065
vn -1.0000 -0.0000 -0.0065


vt 0.9354 0.6676 0.0000
vt 0.8839 0.6203 0.0000
vt 0.8803 0.6258 0.0000
vt 0.9301 0.6756 0.0000
vt 0.8748 0.6294 0.0000
vt 0.9221 0.6809 0.0000
vt 0.8684 0.6307 0.0000
vt 0.9127 0.6828 0.0000
vt 0.6785 0.6307 0.0000
vt 0.6342 0.6828 0.0000
vt 0.6721 0.6294 0.0000
vt 0.6248 0.6809 0.0000
vt 0.6666 0.6258 0.0000
vt 0.6168 0.6756 0.0000
vt 0.6630 0.6203 0.0000
vt 0.6115 0.6676 0.0000
vt 0.6617 0.6139 0.0000
vt 0.6096 0.6582 0.0000
vt 0.6617 0.4240 0.0000
vt 0.6096 0.3797 0.0000
vt 0.6630 0.4176 0.0000
vt 0.6115 0.3703 0.0000
vt 0.6666 0.4121 0.0000
vt 0.6168 0.3623 0.0000
vt 0.6721 0.4085 0.0000
vt 0.6248 0.3570 0.0000
vt 0.6785 0.4072 0.0000
vt 0.6342 0.3551 0.0000
vt 0.8684 0.4072 0.0000
vt 0.9127 0.3551 0.0000
vt 0.8748 0.4085 0.0000
vt 0.9221 0.3570 0.0000
vt 0.8803 0.4121 0.0000
vt 0.9301 0.3623 0.0000
vt 0.8839 0.4176 0.0000
vt 0.9354 0.3703 0.0000
vt 0.8852 0.4240 0.0000
vt 0.9373 0.3797 0.0000
vt 0.8852 0.6139 0.0000
vt 0.9373 0.6582 0.0000
vt 0.2658 0.4115 0.0000
vt 0.2658 0.3539 0.0000
vt 0.2587 0.3539 0.0000
vt 0.2587 0.4115 0.0000
vt 0.2730 0.4115 0.0000
vt 0.2730 0.3539 0.0000
vt 0.2802 0.4115 0.0000
vt 0.2802 0.3539 0.0000
vt 0.4889 0.4115 0.0000
vt 0.4889 0.3539 0.0000
vt 0.5105 0.4115 0.0000
vt 0.5105 0.3539 0.0000
vt 0.5177 0.3539 0.0000
vt 0.5177 0.4115 0.0000
vt 0.5033 0.4115 0.0000
vt 0.5033 0.3539 0.0000
vt 0.4961 0.4115 0.0000
vt 0.4961 0.3539 0.0000
vt 0.2515 0.4115 0.0000
vt 0.2515 0.3539 0.0000
vt 0.0427 0.4115 0.0000
vt 0.0427 0.3539 0.0000
vt 0.0356 0.4115 0.0000
vt 0.0356 0.3539 0.0000
vt 0.0284 0.4115 0.0000
vt 0.0284 0.3539 0.0000
vt 0.0212 0.4115 0.0000
vt 0.0212 0.3539 0.0000
vt 0.0140 0.4115 0.0000
vt 0.0140 0.3539 0.0000
vt 0.4514 0.2946 0.0000
vt 0.4514 0.3031 0.0000
vt 0.0586 0.3031 0.0000
vt 0.0586 0.2946 0.0000
vt 0.4627 0.2946 0.0000
vt 0.4627 0.3031 0.0000
vt 0.4731 0.2946 0.0000
vt 0.4731 0.3031 0.0000
vt 0.4836 0.2946 0.0000
vt 0.4836 0.3031 0.0000
vt 0.4948 0.2946 0.0000
vt 0.4948 0.3031 0.0000
vt 0.8877 0.2946 0.0000
vt 0.8877 0.3031 0.0000
vt 0.8989 0.2946 0.0000
vt 0.8989 0.3031 0.0000
vt 0.9094 0.2946 0.0000
vt 0.9094 0.3031 0.0000
vt 0.9198 0.2946 0.0000
vt 0.9198 0.3031 0.0000
vt 0.9310 0.2946 0.0000
vt 0.9310 0.3031 0.0000
vt 0.4515 0.2946 0.0000
vt 0.4515 0.3031 0.0000
vt 0.0152 0.3031 0.0000
vt 0.0152 0.2946 0.0000
vt 0.0264 0.2946 0.0000
vt 0.0264 0.3031 0.0000
vt 0.0369 0.2946 0.0000
vt 0.0369 0.3031 0.0000
vt 0.0473 0.2946 0.0000
vt 0.0473 0.3031 0.0000
vt 0.9238 0.3457 0.0000
vt 0.9238 0.3131 0.0000
vt 0.9373 0.3131 0.0000
vt 0.9373 0.3457 0.0000
vt 0.9509 0.3131 0.0000
vt 0.9509 0.3457 0.0000
vt 0.9644 0.3131 0.0000
vt 0.9644 0.3457 0.0000
vt 0.9102 0.3457 0.0000
vt 0.9102 0.3131 0.0000
vt 0.5166 0.3131 0.0000
vt 0.5166 0.3457 0.0000
vt 0.5030 0.3131 0.0000
vt 0.5030 0.3457 0.0000
vt 0.4895 0.3131 0.0000
vt 0.4895 0.3457 0.0000
vt 0.4759 0.3131 0.0000
vt 0.4759 0.3457 0.0000
vt 0.4624 0.3131 0.0000
vt 0.4624 0.3457 0.0000
vt 0.0688 0.3131 0.0000
vt 0.0688 0.3457 0.0000
vt 0.0146 0.3457 0.0000
vt 0.0146 0.3131 0.0000
vt 0.0281 0.3131 0.0000
vt 0.0281 0.3457 0.0000
vt 0.0417 0.3131 0.0000
vt 0.0417 0.3457 0.0000
vt 0.0552 0.3131 0.0000
vt 0.0552 0.3457 0.0000
vt 0.8594 0.6210 0.0000
vt 0.6872 0.6210 0.0000
vt 0.6876 0.6175 0.0000
vt 0.8591 0.6175 0.0000
vt 0.6872 0.4185 0.0000
vt 0.8594 0.4185 0.0000
vt 0.8591 0.4220 0.0000
vt 0.6876 0.4220 0.0000
vt 0.8652 0.4196 0.0000
vt 0.8639 0.4228 0.0000
vt 0.8652 0.6198 0.0000
vt 0.8639 0.6166 0.0000
vt 0.8702 0.4229 0.0000
vt 0.8677 0.4254 0.0000
vt 0.8702 0.6166 0.0000
vt 0.8677 0.6141 0.0000
vt 0.8734 0.4278 0.0000
vt 0.8702 0.4292 0.0000
vt 0.8734 0.6116 0.0000
vt 0.8702 0.6103 0.0000
vt 0.8746 0.4336 0.0000
vt 0.8711 0.4340 0.0000
vt 0.8746 0.6058 0.0000
vt 0.8711 0.6055 0.0000
vt 0.6814 0.6198 0.0000
vt 0.6828 0.6166 0.0000
vt 0.6814 0.4196 0.0000
vt 0.6828 0.4228 0.0000
vt 0.6765 0.6166 0.0000
vt 0.6790 0.6141 0.0000
vt 0.6765 0.4229 0.0000
vt 0.6790 0.4254 0.0000
vt 0.6732 0.6116 0.0000
vt 0.6764 0.6103 0.0000
vt 0.6732 0.4278 0.0000
vt 0.6764 0.4292 0.0000
vt 0.6721 0.6058 0.0000
vt 0.6756 0.6055 0.0000
vt 0.6721 0.4336 0.0000
vt 0.6756 0.4340 0.0000


g pCube2
usemtl lambert2
s off
f 1/1/1 2/2/1 3/3/1 4/4/1 
f 4/4/2 3/3/2 5/5/2 6/6/2 
f 6/6/1 5/5/1 7/7/1 8/8/1 
f 8/8/1 7/7/1 9/9/1 10/10/1 
f 10/10/1 9/9/1 11/11/1 12/12/1 
f 12/12/2 11/11/2 13/13/2 14/14/2 
f 14/14/1 13/13/1 15/15/1 16/16/1 
f 16/16/1 15/15/1 17/17/1 18/18/1 
f 18/18/1 17/17/1 19/19/1 20/20/1 
f 20/20/1 19/19/1 21/21/1 22/22/1 
f 22/22/2 21/21/2 23/23/2 24/24/2 
f 24/24/1 23/23/1 25/25/1 26/26/1 
f 26/26/1 25/25/1 27/27/1 28/28/1 
f 28/28/1 27/27/1 29/29/1 30/30/1 
f 30/30/1 29/29/1 31/31/1 32/32/1 
f 32/32/1 31/31/1 33/33/1 34/34/1 
f 34/34/2 33/33/2 35/35/2 36/36/2 
f 36/36/1 35/35/1 37/37/1 38/38/1 
f 38/38/1 37/37/1 39/39/1 40/40/1 
f 40/40/1 39/39/1 2/2/1 1/1/1 
f 41/1/3 42/4/3 43/3/3 44/2/3 
f 42/4/4 45/6/4 46/5/4 43/3/4 
f 45/6/4 47/8/4 48/7/4 46/5/4 
f 47/8/3 49/10/3 50/9/3 48/7/3 
f 49/10/4 51/12/4 52/11/4 50/9/4 
f 51/12/4 53/14/4 54/13/4 52/11/4 
f 53/14/4 55/16/4 56/15/4 54/13/4 
f 55/16/4 57/18/4 58/17/4 56/15/4 
f 57/18/4 59/20/4 60/19/4 58/17/4 
f 59/20/4 61/22/4 62/21/4 60/19/4 
f 61/22/4 63/24/4 64/23/4 62/21/4 
f 63/24/4 65/26/4 66/25/4 64/23/4 
f 65/26/4 67/28/4 68/27/4 66/25/4 
f 67/28/4 69/30/4 70/29/4 68/27/4 
f 69/30/4 71/32/4 72/31/4 70/29/4 
f 71/32/4 73/34/4 74/33/4 72/31/4 
f 73/34/4 75/36/4 76/35/4 74/33/4 
f 75/36/4 77/38/4 78/37/4 76/35/4 
f 77/38/4 79/40/4 80/39/4 78/37/4 
f 79/40/4 41/1/4 44/2/4 80/39/4 
f 43/41/5 3/42/5 2/43/6 44/44/6 
f 46/45/7 5/46/7 3/42/5 43/41/5 
f 48/47/8 7/48/8 5/46/7 46/45/7 
f 50/49/9 9/50/9 7/48/8 48/47/8 
f 52/51/10 11/52/10 9/53/9 50/54/9 
f 54/55/11 13/56/11 11/52/10 52/51/10 
f 56/57/12 15/58/12 13/56/11 54/55/11 
f 58/49/13 17/50/13 15/58/12 56/57/12 
f 60/47/14 19/48/14 17/50/13 58/49/13 
f 62/45/15 21/46/15 19/48/14 60/47/14 
f 64/41/16 23/42/16 21/46/15 62/45/15 
f 66/44/17 25/43/17 23/42/16 64/41/16 
f 68/59/18 27/60/18 25/43/17 66/44/17 
f 70/61/19 29/62/19 27/60/18 68/59/18 
f 72/63/20 31/64/20 29/62/19 70/61/19 
f 74/65/21 33/66/21 31/64/20 72/63/20 
f 76/67/22 35/68/22 33/66/21 74/65/21 
f 78/69/23 37/70/23 35/68/22 76/67/22 
f 80/59/24 39/60/24 37/62/23 78/61/23 
f 44/44/6 2/43/6 39/60/24 80/59/24 
f 81/71/25 82/72/25 83/73/26 84/74/26 
f 82/72/25 81/71/25 85/75/27 86/76/27 
f 86/76/27 85/75/27 87/77/28 88/78/28 
f 88/78/28 87/77/28 89/79/29 90/80/29 
f 90/80/29 89/79/29 91/81/30 92/82/30 
f 92/82/30 91/81/30 93/83/31 94/84/31 
f 94/84/31 93/83/31 95/85/32 96/86/32 
f 96/86/32 95/85/32 97/87/16 98/88/16 
f 98/88/16 97/87/16 99/89/33 100/90/33 
f 100/90/33 99/89/33 101/91/34 102/92/34 
f 102/84/34 101/83/34 103/81/35 104/82/35 
f 104/82/35 103/81/35 105/79/36 106/80/36 
f 106/80/36 105/79/36 107/77/37 108/78/37 
f 108/78/37 107/77/37 109/75/38 110/76/38 
f 110/76/38 109/75/38 111/93/39 112/94/39 
f 112/94/39 111/93/39 113/74/40 114/73/40 
f 114/95/40 113/96/40 115/97/41 116/98/41 
f 116/98/41 115/97/41 117/99/42 118/100/42 
f 118/100/42 117/99/42 119/101/43 120/102/43 
f 120/102/43 119/101/43 84/74/26 83/73/26 
f 41/103/44 121/104/44 122/105/45 42/106/45 
f 42/106/45 122/105/45 123/107/17 45/108/17 
f 45/108/17 123/107/17 124/109/18 47/110/18 
f 47/111/18 124/112/18 125/113/19 49/114/19 
f 49/114/19 125/113/19 126/115/46 51/116/46 
f 51/116/46 126/115/46 127/117/37 53/118/37 
f 53/118/37 127/117/37 128/119/47 55/120/47 
f 55/120/47 128/119/47 129/121/23 57/122/23 
f 57/122/23 129/121/23 130/123/48 59/124/48 
f 59/125/48 130/126/48 131/127/49 61/128/49 
f 61/128/49 131/127/49 132/129/42 63/130/42 
f 63/130/42 132/129/42 133/131/7 65/132/7 
f 65/132/7 133/131/7 134/123/8 67/124/8 
f 67/124/8 134/123/8 135/121/9 69/122/9 
f 69/122/9 135/121/9 136/119/50 71/120/50 
f 71/120/50 136/119/50 137/117/28 73/118/28 
f 73/118/28 137/117/28 138/115/51 75/116/51 
f 75/116/51 138/115/51 139/113/52 77/114/52 
f 77/114/52 139/113/52 140/112/14 79/111/14 
f 79/111/14 140/112/14 121/104/44 41/103/44 
f 141/122/9 30/121/9 32/119/50 142/120/50 
f 143/118/28 142/120/50 32/119/50 34/117/28 
f 144/116/51 143/118/28 34/117/28 36/115/51 
f 145/114/52 144/116/51 36/115/51 38/113/52 
f 146/111/53 145/114/52 38/113/52 40/112/53 
f 147/103/15 146/111/53 40/112/53 1/104/15 
f 148/106/16 147/103/15 1/104/15 4/105/16 
f 149/108/17 148/106/16 4/105/16 6/107/17 
f 150/110/18 149/108/17 6/107/17 8/109/18 
f 151/114/19 150/111/18 8/112/18 10/113/19 
f 152/116/46 151/114/19 10/113/19 12/115/46 
f 153/118/37 152/116/46 12/115/46 14/117/37 
f 154/120/22 153/118/37 14/117/37 16/119/22 
f 155/122/54 154/120/22 16/119/22 18/121/54 
f 156/124/48 155/122/54 18/121/54 20/123/48 
f 157/128/49 156/125/48 20/126/48 22/127/49 
f 158/130/42 157/128/49 22/127/49 24/129/42 
f 159/132/7 158/130/42 24/129/42 26/131/7 
f 160/124/8 159/132/7 26/131/7 28/123/8 
f 141/122/9 160/124/8 28/123/8 30/121/9 
f 135/133/2 134/134/2 83/135/2 82/136/2 
f 160/137/4 141/138/4 81/139/4 84/140/4 
f 141/138/4 142/141/3 85/142/3 81/139/4 
f 136/143/1 135/133/2 82/136/2 86/144/1 
f 142/141/3 143/145/3 87/146/3 85/142/3 
f 137/147/1 136/143/1 86/144/1 88/148/1 
f 143/145/3 144/149/4 89/150/4 87/146/3 
f 138/151/1 137/147/1 88/148/1 90/152/1 
f 144/149/4 145/153/4 91/154/4 89/150/4 
f 139/155/1 138/151/1 90/152/1 92/156/1 
f 145/153/4 146/155/4 93/156/4 91/154/4 
f 140/153/1 139/155/1 92/156/1 94/154/1 
f 146/155/4 147/151/4 95/152/4 93/156/4 
f 121/149/1 140/153/1 94/154/1 96/150/1 
f 147/151/4 148/147/4 97/148/4 95/152/4 
f 122/145/2 121/149/1 96/150/1 98/146/2 
f 148/147/4 149/143/4 99/144/4 97/148/4 
f 123/141/2 122/145/2 98/146/2 100/142/2 
f 149/143/4 150/133/3 101/136/3 99/144/4 
f 124/138/1 123/141/2 100/142/2 102/139/1 
f 150/133/3 151/134/4 103/135/4 101/136/3 
f 125/137/1 124/138/1 102/139/1 104/140/1 
f 151/134/4 152/157/4 105/158/4 103/135/4 
f 126/159/2 125/137/1 104/140/1 106/160/2 
f 152/157/4 153/161/4 107/162/4 105/158/4 
f 127/163/2 126/159/2 106/160/2 108/164/2 
f 153/161/4 154/165/4 109/166/4 107/162/4 
f 128/167/2 127/163/2 108/164/2 110/168/2 
f 154/165/4 155/169/4 111/170/4 109/166/4 
f 129/171/1 128/167/2 110/168/2 112/172/1 
f 155/169/4 156/171/3 113/172/3 111/170/4 
f 130/169/2 129/171/1 112/172/1 114/170/2 
f 156/171/3 157/167/3 115/168/3 113/172/3 
f 131/165/1 130/169/2 114/170/2 116/166/1 
f 157/167/3 158/163/4 117/164/4 115/168/3 
f 132/161/1 131/165/1 116/166/1 118/162/1 
f 158/163/4 159/159/4 119/160/4 117/164/4 
f 133/157/1 132/161/1 118/162/1 120/158/1 
f 159/159/4 160/137/4 84/140/4 119/160/4 
f 134/134/2 133/157/1 120/158/1 83/135/2 


